%TF.GenerationSoftware,KiCad,Pcbnew,9.0.2*%
%TF.CreationDate,2026-04-01T12:59:57-04:00*%
%TF.ProjectId,FlowerBed,466c6f77-6572-4426-9564-2e6b69636164,rev?*%
%TF.SameCoordinates,Original*%
%TF.FileFunction,Soldermask,Top*%
%TF.FilePolarity,Negative*%
%FSLAX46Y46*%
G04 Gerber Fmt 4.6, Leading zero omitted, Abs format (unit mm)*
G04 Created by KiCad (PCBNEW 9.0.2) date 2026-04-01 12:59:57*
%MOMM*%
%LPD*%
G01*
G04 APERTURE LIST*
G04 Aperture macros list*
%AMRoundRect*
0 Rectangle with rounded corners*
0 $1 Rounding radius*
0 $2 $3 $4 $5 $6 $7 $8 $9 X,Y pos of 4 corners*
0 Add a 4 corners polygon primitive as box body*
4,1,4,$2,$3,$4,$5,$6,$7,$8,$9,$2,$3,0*
0 Add four circle primitives for the rounded corners*
1,1,$1+$1,$2,$3*
1,1,$1+$1,$4,$5*
1,1,$1+$1,$6,$7*
1,1,$1+$1,$8,$9*
0 Add four rect primitives between the rounded corners*
20,1,$1+$1,$2,$3,$4,$5,0*
20,1,$1+$1,$4,$5,$6,$7,0*
20,1,$1+$1,$6,$7,$8,$9,0*
20,1,$1+$1,$8,$9,$2,$3,0*%
G04 Aperture macros list end*
%ADD10RoundRect,0.250000X0.475000X-0.250000X0.475000X0.250000X-0.475000X0.250000X-0.475000X-0.250000X0*%
%ADD11RoundRect,0.250000X-0.400000X-0.750000X0.400000X-0.750000X0.400000X0.750000X-0.400000X0.750000X0*%
%ADD12RoundRect,0.250000X-0.750000X-0.750000X0.750000X-0.750000X0.750000X0.750000X-0.750000X0.750000X0*%
%ADD13RoundRect,0.250000X-0.250000X-0.475000X0.250000X-0.475000X0.250000X0.475000X-0.250000X0.475000X0*%
%ADD14RoundRect,0.100000X-0.712500X-0.100000X0.712500X-0.100000X0.712500X0.100000X-0.712500X0.100000X0*%
%ADD15O,2.720000X3.240000*%
%ADD16R,1.800000X1.800000*%
%ADD17C,1.800000*%
%ADD18RoundRect,0.135000X-0.135000X-0.185000X0.135000X-0.185000X0.135000X0.185000X-0.135000X0.185000X0*%
%ADD19C,1.200000*%
%ADD20O,2.200000X1.200000*%
%ADD21O,2.300000X1.600000*%
%ADD22O,1.200000X2.200000*%
%ADD23O,2.500000X1.600000*%
%ADD24R,1.700000X1.700000*%
%ADD25C,1.700000*%
%ADD26O,3.200000X1.900000*%
%ADD27RoundRect,0.100000X0.130000X0.100000X-0.130000X0.100000X-0.130000X-0.100000X0.130000X-0.100000X0*%
%ADD28RoundRect,0.140000X-0.140000X-0.170000X0.140000X-0.170000X0.140000X0.170000X-0.140000X0.170000X0*%
%ADD29RoundRect,0.140000X0.140000X0.170000X-0.140000X0.170000X-0.140000X-0.170000X0.140000X-0.170000X0*%
%ADD30RoundRect,0.650000X0.650000X-0.650000X0.650000X0.650000X-0.650000X0.650000X-0.650000X-0.650000X0*%
%ADD31C,2.600000*%
G04 APERTURE END LIST*
D10*
%TO.C,C4*%
X142300000Y-76850000D03*
X142300000Y-78750000D03*
%TD*%
D11*
%TO.C,VR1*%
X131850000Y-118000000D03*
D12*
X133000000Y-122000000D03*
D11*
X134150000Y-118000000D03*
%TD*%
D13*
%TO.C,C3*%
X151191000Y-122555000D03*
X149291000Y-122555000D03*
%TD*%
D14*
%TO.C,U1*%
X146412500Y-121225000D03*
X146412500Y-121875000D03*
X146412500Y-122525000D03*
X146412500Y-123175000D03*
X142187500Y-123175000D03*
X142187500Y-122525000D03*
X142187500Y-121875000D03*
X142187500Y-121225000D03*
%TD*%
D15*
%TO.C,POT2*%
X80570000Y-73660000D03*
X90170000Y-73660000D03*
D16*
X82870000Y-81160000D03*
D17*
X85370000Y-81160000D03*
X87870000Y-81160000D03*
%TD*%
D18*
%TO.C,R3*%
X139290000Y-122400000D03*
X140310000Y-122400000D03*
%TD*%
D19*
%TO.C,J3*%
X144700000Y-96000000D03*
X147200000Y-96000000D03*
X139700000Y-91000000D03*
X144700000Y-86000000D03*
X147200000Y-86000000D03*
D20*
X139700000Y-96000000D03*
D21*
X139700000Y-93500000D03*
D22*
X144700000Y-91000000D03*
D20*
X139700000Y-86000000D03*
D23*
X139700000Y-88500000D03*
%TD*%
D15*
%TO.C,POT1*%
X60250000Y-73660000D03*
X69850000Y-73660000D03*
D16*
X62550000Y-81160000D03*
D17*
X65050000Y-81160000D03*
X67550000Y-81160000D03*
%TD*%
D24*
%TO.C,J5*%
X144780000Y-30480000D03*
D25*
X144780000Y-33020000D03*
X144780000Y-35560000D03*
X144780000Y-38100000D03*
X144780000Y-40640000D03*
X144780000Y-43180000D03*
X144780000Y-45720000D03*
X144780000Y-48260000D03*
X144780000Y-50800000D03*
X144780000Y-53340000D03*
X144780000Y-55880000D03*
X144780000Y-58420000D03*
X144780000Y-60960000D03*
X144780000Y-63500000D03*
X144780000Y-66040000D03*
X144780000Y-68580000D03*
%TD*%
D26*
%TO.C,SW7*%
X111760000Y-58340000D03*
X99260000Y-58340000D03*
X111760000Y-53340000D03*
X99260000Y-53340000D03*
%TD*%
%TO.C,SW4*%
X50800000Y-58340000D03*
X38300000Y-58340000D03*
X50800000Y-53340000D03*
X38300000Y-53340000D03*
%TD*%
D24*
%TO.C,J4*%
X119380000Y-66040000D03*
D25*
X119380000Y-63500000D03*
X119380000Y-60960000D03*
X119380000Y-58420000D03*
X119380000Y-55880000D03*
X119380000Y-53340000D03*
X119380000Y-50800000D03*
%TD*%
D27*
%TO.C,R1*%
X132220000Y-109200000D03*
X131580000Y-109200000D03*
%TD*%
D26*
%TO.C,SW2*%
X91440000Y-39290000D03*
X78940000Y-39290000D03*
X91440000Y-34290000D03*
X78940000Y-34290000D03*
%TD*%
%TO.C,SW0*%
X50800000Y-39290000D03*
X38300000Y-39290000D03*
X50800000Y-34290000D03*
X38300000Y-34290000D03*
%TD*%
D28*
%TO.C,C2*%
X148820000Y-120800000D03*
X149780000Y-120800000D03*
%TD*%
D26*
%TO.C,SW1*%
X71120000Y-39290000D03*
X58620000Y-39290000D03*
X71120000Y-34290000D03*
X58620000Y-34290000D03*
%TD*%
D29*
%TO.C,C1*%
X137880000Y-122400000D03*
X136920000Y-122400000D03*
%TD*%
D26*
%TO.C,SW5*%
X71120000Y-58340000D03*
X58620000Y-58340000D03*
X71120000Y-53340000D03*
X58620000Y-53340000D03*
%TD*%
D24*
%TO.C,J6*%
X130683000Y-92837000D03*
D25*
X130683000Y-95377000D03*
%TD*%
D15*
%TO.C,POT0*%
X39930000Y-73660000D03*
X49530000Y-73660000D03*
D16*
X42230000Y-81160000D03*
D17*
X44730000Y-81160000D03*
X47230000Y-81160000D03*
%TD*%
D27*
%TO.C,R2*%
X132220000Y-104100000D03*
X131580000Y-104100000D03*
%TD*%
D19*
%TO.C,J2*%
X144700000Y-111600000D03*
X147200000Y-111600000D03*
X139700000Y-106600000D03*
X144700000Y-101600000D03*
X147200000Y-101600000D03*
D20*
X139700000Y-111600000D03*
D21*
X139700000Y-109100000D03*
D22*
X144700000Y-106600000D03*
D20*
X139700000Y-101600000D03*
D23*
X139700000Y-104100000D03*
%TD*%
D15*
%TO.C,POT3*%
X100890000Y-73660000D03*
X110490000Y-73660000D03*
D16*
X103190000Y-81160000D03*
D17*
X105690000Y-81160000D03*
X108190000Y-81160000D03*
%TD*%
D26*
%TO.C,SW6*%
X91440000Y-58340000D03*
X78940000Y-58340000D03*
X91440000Y-53340000D03*
X78940000Y-53340000D03*
%TD*%
%TO.C,SW3*%
X111760000Y-39290000D03*
X99260000Y-39290000D03*
X111760000Y-34290000D03*
X99260000Y-34290000D03*
%TD*%
D24*
%TO.C,A1*%
X124260000Y-30480000D03*
D25*
X124260000Y-33020000D03*
X124260000Y-35560000D03*
X124260000Y-38100000D03*
X124260000Y-40640000D03*
X124260000Y-43180000D03*
X124260000Y-45720000D03*
X124260000Y-48260000D03*
X124260000Y-50800000D03*
X124260000Y-53340000D03*
X124260000Y-55880000D03*
X124260000Y-58420000D03*
X124260000Y-60960000D03*
X124260000Y-63500000D03*
X124260000Y-66040000D03*
X124260000Y-68580000D03*
X124260000Y-71120000D03*
X124260000Y-73660000D03*
X124260000Y-76200000D03*
X124260000Y-78740000D03*
X139500000Y-78740000D03*
X139500000Y-76200000D03*
X139500000Y-73660000D03*
X139500000Y-71120000D03*
X139500000Y-68580000D03*
X139500000Y-66040000D03*
X139500000Y-63500000D03*
X139500000Y-60960000D03*
X139500000Y-58420000D03*
X139500000Y-55880000D03*
X139500000Y-53340000D03*
X139500000Y-50800000D03*
X139500000Y-48260000D03*
X139500000Y-45720000D03*
X139500000Y-43180000D03*
X139500000Y-40640000D03*
X139500000Y-38100000D03*
X139500000Y-35560000D03*
X139500000Y-33020000D03*
X139500000Y-30480000D03*
%TD*%
D30*
%TO.C,J1*%
X123190000Y-126746000D03*
D31*
X123190000Y-121666000D03*
%TD*%
M02*
