%TF.GenerationSoftware,KiCad,Pcbnew,9.0.2*%
%TF.CreationDate,2026-04-01T12:59:57-04:00*%
%TF.ProjectId,FlowerBed,466c6f77-6572-4426-9564-2e6b69636164,rev?*%
%TF.SameCoordinates,Original*%
%TF.FileFunction,Legend,Bot*%
%TF.FilePolarity,Positive*%
%FSLAX46Y46*%
G04 Gerber Fmt 4.6, Leading zero omitted, Abs format (unit mm)*
G04 Created by KiCad (PCBNEW 9.0.2) date 2026-04-01 12:59:57*
%MOMM*%
%LPD*%
G01*
G04 APERTURE LIST*
%ADD10C,0.150000*%
G04 APERTURE END LIST*
D10*
X126758506Y-110838931D02*
X126758506Y-111553216D01*
X126758506Y-111553216D02*
X126806125Y-111696073D01*
X126806125Y-111696073D02*
X126901363Y-111791312D01*
X126901363Y-111791312D02*
X127044220Y-111838931D01*
X127044220Y-111838931D02*
X127139458Y-111838931D01*
X125853744Y-111838931D02*
X125853744Y-111315121D01*
X125853744Y-111315121D02*
X125901363Y-111219883D01*
X125901363Y-111219883D02*
X125996601Y-111172264D01*
X125996601Y-111172264D02*
X126187077Y-111172264D01*
X126187077Y-111172264D02*
X126282315Y-111219883D01*
X125853744Y-111791312D02*
X125948982Y-111838931D01*
X125948982Y-111838931D02*
X126187077Y-111838931D01*
X126187077Y-111838931D02*
X126282315Y-111791312D01*
X126282315Y-111791312D02*
X126329934Y-111696073D01*
X126329934Y-111696073D02*
X126329934Y-111600835D01*
X126329934Y-111600835D02*
X126282315Y-111505597D01*
X126282315Y-111505597D02*
X126187077Y-111457978D01*
X126187077Y-111457978D02*
X125948982Y-111457978D01*
X125948982Y-111457978D02*
X125853744Y-111410359D01*
X124948982Y-111791312D02*
X125044220Y-111838931D01*
X125044220Y-111838931D02*
X125234696Y-111838931D01*
X125234696Y-111838931D02*
X125329934Y-111791312D01*
X125329934Y-111791312D02*
X125377553Y-111743692D01*
X125377553Y-111743692D02*
X125425172Y-111648454D01*
X125425172Y-111648454D02*
X125425172Y-111362740D01*
X125425172Y-111362740D02*
X125377553Y-111267502D01*
X125377553Y-111267502D02*
X125329934Y-111219883D01*
X125329934Y-111219883D02*
X125234696Y-111172264D01*
X125234696Y-111172264D02*
X125044220Y-111172264D01*
X125044220Y-111172264D02*
X124948982Y-111219883D01*
X124520410Y-111838931D02*
X124520410Y-110838931D01*
X124425172Y-111457978D02*
X124139458Y-111838931D01*
X124139458Y-111172264D02*
X124520410Y-111553216D01*
X122948981Y-111838931D02*
X122948981Y-110838931D01*
X122948981Y-110838931D02*
X122568029Y-110838931D01*
X122568029Y-110838931D02*
X122472791Y-110886550D01*
X122472791Y-110886550D02*
X122425172Y-110934169D01*
X122425172Y-110934169D02*
X122377553Y-111029407D01*
X122377553Y-111029407D02*
X122377553Y-111172264D01*
X122377553Y-111172264D02*
X122425172Y-111267502D01*
X122425172Y-111267502D02*
X122472791Y-111315121D01*
X122472791Y-111315121D02*
X122568029Y-111362740D01*
X122568029Y-111362740D02*
X122948981Y-111362740D01*
X121520410Y-111838931D02*
X121520410Y-111315121D01*
X121520410Y-111315121D02*
X121568029Y-111219883D01*
X121568029Y-111219883D02*
X121663267Y-111172264D01*
X121663267Y-111172264D02*
X121853743Y-111172264D01*
X121853743Y-111172264D02*
X121948981Y-111219883D01*
X121520410Y-111791312D02*
X121615648Y-111838931D01*
X121615648Y-111838931D02*
X121853743Y-111838931D01*
X121853743Y-111838931D02*
X121948981Y-111791312D01*
X121948981Y-111791312D02*
X121996600Y-111696073D01*
X121996600Y-111696073D02*
X121996600Y-111600835D01*
X121996600Y-111600835D02*
X121948981Y-111505597D01*
X121948981Y-111505597D02*
X121853743Y-111457978D01*
X121853743Y-111457978D02*
X121615648Y-111457978D01*
X121615648Y-111457978D02*
X121520410Y-111410359D01*
X121139457Y-111172264D02*
X120901362Y-111838931D01*
X120663267Y-111172264D02*
X120901362Y-111838931D01*
X120901362Y-111838931D02*
X120996600Y-112077026D01*
X120996600Y-112077026D02*
X121044219Y-112124645D01*
X121044219Y-112124645D02*
X121139457Y-112172264D01*
X120282314Y-111172264D02*
X120282314Y-111838931D01*
X120282314Y-111267502D02*
X120234695Y-111219883D01*
X120234695Y-111219883D02*
X120139457Y-111172264D01*
X120139457Y-111172264D02*
X119996600Y-111172264D01*
X119996600Y-111172264D02*
X119901362Y-111219883D01*
X119901362Y-111219883D02*
X119853743Y-111315121D01*
X119853743Y-111315121D02*
X119853743Y-111838931D01*
X118996600Y-111791312D02*
X119091838Y-111838931D01*
X119091838Y-111838931D02*
X119282314Y-111838931D01*
X119282314Y-111838931D02*
X119377552Y-111791312D01*
X119377552Y-111791312D02*
X119425171Y-111696073D01*
X119425171Y-111696073D02*
X119425171Y-111315121D01*
X119425171Y-111315121D02*
X119377552Y-111219883D01*
X119377552Y-111219883D02*
X119282314Y-111172264D01*
X119282314Y-111172264D02*
X119091838Y-111172264D01*
X119091838Y-111172264D02*
X118996600Y-111219883D01*
X118996600Y-111219883D02*
X118948981Y-111315121D01*
X118948981Y-111315121D02*
X118948981Y-111410359D01*
X118948981Y-111410359D02*
X119425171Y-111505597D01*
X127091839Y-113163160D02*
X126615649Y-113163160D01*
X127187077Y-113448875D02*
X126853744Y-112448875D01*
X126853744Y-112448875D02*
X126520411Y-113448875D01*
X125758506Y-112782208D02*
X125758506Y-113448875D01*
X126187077Y-112782208D02*
X126187077Y-113306017D01*
X126187077Y-113306017D02*
X126139458Y-113401256D01*
X126139458Y-113401256D02*
X126044220Y-113448875D01*
X126044220Y-113448875D02*
X125901363Y-113448875D01*
X125901363Y-113448875D02*
X125806125Y-113401256D01*
X125806125Y-113401256D02*
X125758506Y-113353636D01*
X124853744Y-113448875D02*
X124853744Y-112448875D01*
X124853744Y-113401256D02*
X124948982Y-113448875D01*
X124948982Y-113448875D02*
X125139458Y-113448875D01*
X125139458Y-113448875D02*
X125234696Y-113401256D01*
X125234696Y-113401256D02*
X125282315Y-113353636D01*
X125282315Y-113353636D02*
X125329934Y-113258398D01*
X125329934Y-113258398D02*
X125329934Y-112972684D01*
X125329934Y-112972684D02*
X125282315Y-112877446D01*
X125282315Y-112877446D02*
X125234696Y-112829827D01*
X125234696Y-112829827D02*
X125139458Y-112782208D01*
X125139458Y-112782208D02*
X124948982Y-112782208D01*
X124948982Y-112782208D02*
X124853744Y-112829827D01*
X124377553Y-113448875D02*
X124377553Y-112782208D01*
X124377553Y-112448875D02*
X124425172Y-112496494D01*
X124425172Y-112496494D02*
X124377553Y-112544113D01*
X124377553Y-112544113D02*
X124329934Y-112496494D01*
X124329934Y-112496494D02*
X124377553Y-112448875D01*
X124377553Y-112448875D02*
X124377553Y-112544113D01*
X123758506Y-113448875D02*
X123853744Y-113401256D01*
X123853744Y-113401256D02*
X123901363Y-113353636D01*
X123901363Y-113353636D02*
X123948982Y-113258398D01*
X123948982Y-113258398D02*
X123948982Y-112972684D01*
X123948982Y-112972684D02*
X123901363Y-112877446D01*
X123901363Y-112877446D02*
X123853744Y-112829827D01*
X123853744Y-112829827D02*
X123758506Y-112782208D01*
X123758506Y-112782208D02*
X123615649Y-112782208D01*
X123615649Y-112782208D02*
X123520411Y-112829827D01*
X123520411Y-112829827D02*
X123472792Y-112877446D01*
X123472792Y-112877446D02*
X123425173Y-112972684D01*
X123425173Y-112972684D02*
X123425173Y-113258398D01*
X123425173Y-113258398D02*
X123472792Y-113353636D01*
X123472792Y-113353636D02*
X123520411Y-113401256D01*
X123520411Y-113401256D02*
X123615649Y-113448875D01*
X123615649Y-113448875D02*
X123758506Y-113448875D01*
X122234696Y-112925065D02*
X121901363Y-112925065D01*
X121758506Y-113448875D02*
X122234696Y-113448875D01*
X122234696Y-113448875D02*
X122234696Y-112448875D01*
X122234696Y-112448875D02*
X121758506Y-112448875D01*
X121329934Y-112782208D02*
X121329934Y-113448875D01*
X121329934Y-112877446D02*
X121282315Y-112829827D01*
X121282315Y-112829827D02*
X121187077Y-112782208D01*
X121187077Y-112782208D02*
X121044220Y-112782208D01*
X121044220Y-112782208D02*
X120948982Y-112829827D01*
X120948982Y-112829827D02*
X120901363Y-112925065D01*
X120901363Y-112925065D02*
X120901363Y-113448875D01*
X119996601Y-112782208D02*
X119996601Y-113591732D01*
X119996601Y-113591732D02*
X120044220Y-113686970D01*
X120044220Y-113686970D02*
X120091839Y-113734589D01*
X120091839Y-113734589D02*
X120187077Y-113782208D01*
X120187077Y-113782208D02*
X120329934Y-113782208D01*
X120329934Y-113782208D02*
X120425172Y-113734589D01*
X119996601Y-113401256D02*
X120091839Y-113448875D01*
X120091839Y-113448875D02*
X120282315Y-113448875D01*
X120282315Y-113448875D02*
X120377553Y-113401256D01*
X120377553Y-113401256D02*
X120425172Y-113353636D01*
X120425172Y-113353636D02*
X120472791Y-113258398D01*
X120472791Y-113258398D02*
X120472791Y-112972684D01*
X120472791Y-112972684D02*
X120425172Y-112877446D01*
X120425172Y-112877446D02*
X120377553Y-112829827D01*
X120377553Y-112829827D02*
X120282315Y-112782208D01*
X120282315Y-112782208D02*
X120091839Y-112782208D01*
X120091839Y-112782208D02*
X119996601Y-112829827D01*
X119520410Y-113448875D02*
X119520410Y-112782208D01*
X119520410Y-112448875D02*
X119568029Y-112496494D01*
X119568029Y-112496494D02*
X119520410Y-112544113D01*
X119520410Y-112544113D02*
X119472791Y-112496494D01*
X119472791Y-112496494D02*
X119520410Y-112448875D01*
X119520410Y-112448875D02*
X119520410Y-112544113D01*
X119044220Y-112782208D02*
X119044220Y-113448875D01*
X119044220Y-112877446D02*
X118996601Y-112829827D01*
X118996601Y-112829827D02*
X118901363Y-112782208D01*
X118901363Y-112782208D02*
X118758506Y-112782208D01*
X118758506Y-112782208D02*
X118663268Y-112829827D01*
X118663268Y-112829827D02*
X118615649Y-112925065D01*
X118615649Y-112925065D02*
X118615649Y-113448875D01*
X117758506Y-113401256D02*
X117853744Y-113448875D01*
X117853744Y-113448875D02*
X118044220Y-113448875D01*
X118044220Y-113448875D02*
X118139458Y-113401256D01*
X118139458Y-113401256D02*
X118187077Y-113306017D01*
X118187077Y-113306017D02*
X118187077Y-112925065D01*
X118187077Y-112925065D02*
X118139458Y-112829827D01*
X118139458Y-112829827D02*
X118044220Y-112782208D01*
X118044220Y-112782208D02*
X117853744Y-112782208D01*
X117853744Y-112782208D02*
X117758506Y-112829827D01*
X117758506Y-112829827D02*
X117710887Y-112925065D01*
X117710887Y-112925065D02*
X117710887Y-113020303D01*
X117710887Y-113020303D02*
X118187077Y-113115541D01*
X116901363Y-113401256D02*
X116996601Y-113448875D01*
X116996601Y-113448875D02*
X117187077Y-113448875D01*
X117187077Y-113448875D02*
X117282315Y-113401256D01*
X117282315Y-113401256D02*
X117329934Y-113306017D01*
X117329934Y-113306017D02*
X117329934Y-112925065D01*
X117329934Y-112925065D02*
X117282315Y-112829827D01*
X117282315Y-112829827D02*
X117187077Y-112782208D01*
X117187077Y-112782208D02*
X116996601Y-112782208D01*
X116996601Y-112782208D02*
X116901363Y-112829827D01*
X116901363Y-112829827D02*
X116853744Y-112925065D01*
X116853744Y-112925065D02*
X116853744Y-113020303D01*
X116853744Y-113020303D02*
X117329934Y-113115541D01*
X116425172Y-113448875D02*
X116425172Y-112782208D01*
X116425172Y-112972684D02*
X116377553Y-112877446D01*
X116377553Y-112877446D02*
X116329934Y-112829827D01*
X116329934Y-112829827D02*
X116234696Y-112782208D01*
X116234696Y-112782208D02*
X116139458Y-112782208D01*
X115806124Y-113448875D02*
X115806124Y-112782208D01*
X115806124Y-112448875D02*
X115853743Y-112496494D01*
X115853743Y-112496494D02*
X115806124Y-112544113D01*
X115806124Y-112544113D02*
X115758505Y-112496494D01*
X115758505Y-112496494D02*
X115806124Y-112448875D01*
X115806124Y-112448875D02*
X115806124Y-112544113D01*
X115329934Y-112782208D02*
X115329934Y-113448875D01*
X115329934Y-112877446D02*
X115282315Y-112829827D01*
X115282315Y-112829827D02*
X115187077Y-112782208D01*
X115187077Y-112782208D02*
X115044220Y-112782208D01*
X115044220Y-112782208D02*
X114948982Y-112829827D01*
X114948982Y-112829827D02*
X114901363Y-112925065D01*
X114901363Y-112925065D02*
X114901363Y-113448875D01*
X113996601Y-112782208D02*
X113996601Y-113591732D01*
X113996601Y-113591732D02*
X114044220Y-113686970D01*
X114044220Y-113686970D02*
X114091839Y-113734589D01*
X114091839Y-113734589D02*
X114187077Y-113782208D01*
X114187077Y-113782208D02*
X114329934Y-113782208D01*
X114329934Y-113782208D02*
X114425172Y-113734589D01*
X113996601Y-113401256D02*
X114091839Y-113448875D01*
X114091839Y-113448875D02*
X114282315Y-113448875D01*
X114282315Y-113448875D02*
X114377553Y-113401256D01*
X114377553Y-113401256D02*
X114425172Y-113353636D01*
X114425172Y-113353636D02*
X114472791Y-113258398D01*
X114472791Y-113258398D02*
X114472791Y-112972684D01*
X114472791Y-112972684D02*
X114425172Y-112877446D01*
X114425172Y-112877446D02*
X114377553Y-112829827D01*
X114377553Y-112829827D02*
X114282315Y-112782208D01*
X114282315Y-112782208D02*
X114091839Y-112782208D01*
X114091839Y-112782208D02*
X113996601Y-112829827D01*
X112806124Y-113401256D02*
X112663267Y-113448875D01*
X112663267Y-113448875D02*
X112425172Y-113448875D01*
X112425172Y-113448875D02*
X112329934Y-113401256D01*
X112329934Y-113401256D02*
X112282315Y-113353636D01*
X112282315Y-113353636D02*
X112234696Y-113258398D01*
X112234696Y-113258398D02*
X112234696Y-113163160D01*
X112234696Y-113163160D02*
X112282315Y-113067922D01*
X112282315Y-113067922D02*
X112329934Y-113020303D01*
X112329934Y-113020303D02*
X112425172Y-112972684D01*
X112425172Y-112972684D02*
X112615648Y-112925065D01*
X112615648Y-112925065D02*
X112710886Y-112877446D01*
X112710886Y-112877446D02*
X112758505Y-112829827D01*
X112758505Y-112829827D02*
X112806124Y-112734589D01*
X112806124Y-112734589D02*
X112806124Y-112639351D01*
X112806124Y-112639351D02*
X112758505Y-112544113D01*
X112758505Y-112544113D02*
X112710886Y-112496494D01*
X112710886Y-112496494D02*
X112615648Y-112448875D01*
X112615648Y-112448875D02*
X112377553Y-112448875D01*
X112377553Y-112448875D02*
X112234696Y-112496494D01*
X111663267Y-113448875D02*
X111758505Y-113401256D01*
X111758505Y-113401256D02*
X111806124Y-113353636D01*
X111806124Y-113353636D02*
X111853743Y-113258398D01*
X111853743Y-113258398D02*
X111853743Y-112972684D01*
X111853743Y-112972684D02*
X111806124Y-112877446D01*
X111806124Y-112877446D02*
X111758505Y-112829827D01*
X111758505Y-112829827D02*
X111663267Y-112782208D01*
X111663267Y-112782208D02*
X111520410Y-112782208D01*
X111520410Y-112782208D02*
X111425172Y-112829827D01*
X111425172Y-112829827D02*
X111377553Y-112877446D01*
X111377553Y-112877446D02*
X111329934Y-112972684D01*
X111329934Y-112972684D02*
X111329934Y-113258398D01*
X111329934Y-113258398D02*
X111377553Y-113353636D01*
X111377553Y-113353636D02*
X111425172Y-113401256D01*
X111425172Y-113401256D02*
X111520410Y-113448875D01*
X111520410Y-113448875D02*
X111663267Y-113448875D01*
X110472791Y-113401256D02*
X110568029Y-113448875D01*
X110568029Y-113448875D02*
X110758505Y-113448875D01*
X110758505Y-113448875D02*
X110853743Y-113401256D01*
X110853743Y-113401256D02*
X110901362Y-113353636D01*
X110901362Y-113353636D02*
X110948981Y-113258398D01*
X110948981Y-113258398D02*
X110948981Y-112972684D01*
X110948981Y-112972684D02*
X110901362Y-112877446D01*
X110901362Y-112877446D02*
X110853743Y-112829827D01*
X110853743Y-112829827D02*
X110758505Y-112782208D01*
X110758505Y-112782208D02*
X110568029Y-112782208D01*
X110568029Y-112782208D02*
X110472791Y-112829827D01*
X110044219Y-113448875D02*
X110044219Y-112782208D01*
X110044219Y-112448875D02*
X110091838Y-112496494D01*
X110091838Y-112496494D02*
X110044219Y-112544113D01*
X110044219Y-112544113D02*
X109996600Y-112496494D01*
X109996600Y-112496494D02*
X110044219Y-112448875D01*
X110044219Y-112448875D02*
X110044219Y-112544113D01*
X109187077Y-113401256D02*
X109282315Y-113448875D01*
X109282315Y-113448875D02*
X109472791Y-113448875D01*
X109472791Y-113448875D02*
X109568029Y-113401256D01*
X109568029Y-113401256D02*
X109615648Y-113306017D01*
X109615648Y-113306017D02*
X109615648Y-112925065D01*
X109615648Y-112925065D02*
X109568029Y-112829827D01*
X109568029Y-112829827D02*
X109472791Y-112782208D01*
X109472791Y-112782208D02*
X109282315Y-112782208D01*
X109282315Y-112782208D02*
X109187077Y-112829827D01*
X109187077Y-112829827D02*
X109139458Y-112925065D01*
X109139458Y-112925065D02*
X109139458Y-113020303D01*
X109139458Y-113020303D02*
X109615648Y-113115541D01*
X108853743Y-112782208D02*
X108472791Y-112782208D01*
X108710886Y-112448875D02*
X108710886Y-113306017D01*
X108710886Y-113306017D02*
X108663267Y-113401256D01*
X108663267Y-113401256D02*
X108568029Y-113448875D01*
X108568029Y-113448875D02*
X108472791Y-113448875D01*
X108234695Y-112782208D02*
X107996600Y-113448875D01*
X107758505Y-112782208D02*
X107996600Y-113448875D01*
X107996600Y-113448875D02*
X108091838Y-113686970D01*
X108091838Y-113686970D02*
X108139457Y-113734589D01*
X108139457Y-113734589D02*
X108234695Y-113782208D01*
X126472792Y-115058819D02*
X126806125Y-114582628D01*
X127044220Y-115058819D02*
X127044220Y-114058819D01*
X127044220Y-114058819D02*
X126663268Y-114058819D01*
X126663268Y-114058819D02*
X126568030Y-114106438D01*
X126568030Y-114106438D02*
X126520411Y-114154057D01*
X126520411Y-114154057D02*
X126472792Y-114249295D01*
X126472792Y-114249295D02*
X126472792Y-114392152D01*
X126472792Y-114392152D02*
X126520411Y-114487390D01*
X126520411Y-114487390D02*
X126568030Y-114535009D01*
X126568030Y-114535009D02*
X126663268Y-114582628D01*
X126663268Y-114582628D02*
X127044220Y-114582628D01*
X125663268Y-115011200D02*
X125758506Y-115058819D01*
X125758506Y-115058819D02*
X125948982Y-115058819D01*
X125948982Y-115058819D02*
X126044220Y-115011200D01*
X126044220Y-115011200D02*
X126091839Y-114915961D01*
X126091839Y-114915961D02*
X126091839Y-114535009D01*
X126091839Y-114535009D02*
X126044220Y-114439771D01*
X126044220Y-114439771D02*
X125948982Y-114392152D01*
X125948982Y-114392152D02*
X125758506Y-114392152D01*
X125758506Y-114392152D02*
X125663268Y-114439771D01*
X125663268Y-114439771D02*
X125615649Y-114535009D01*
X125615649Y-114535009D02*
X125615649Y-114630247D01*
X125615649Y-114630247D02*
X126091839Y-114725485D01*
X125282315Y-114392152D02*
X125044220Y-115058819D01*
X125044220Y-115058819D02*
X124806125Y-114392152D01*
X123472791Y-114058819D02*
X123377553Y-114058819D01*
X123377553Y-114058819D02*
X123282315Y-114106438D01*
X123282315Y-114106438D02*
X123234696Y-114154057D01*
X123234696Y-114154057D02*
X123187077Y-114249295D01*
X123187077Y-114249295D02*
X123139458Y-114439771D01*
X123139458Y-114439771D02*
X123139458Y-114677866D01*
X123139458Y-114677866D02*
X123187077Y-114868342D01*
X123187077Y-114868342D02*
X123234696Y-114963580D01*
X123234696Y-114963580D02*
X123282315Y-115011200D01*
X123282315Y-115011200D02*
X123377553Y-115058819D01*
X123377553Y-115058819D02*
X123472791Y-115058819D01*
X123472791Y-115058819D02*
X123568029Y-115011200D01*
X123568029Y-115011200D02*
X123615648Y-114963580D01*
X123615648Y-114963580D02*
X123663267Y-114868342D01*
X123663267Y-114868342D02*
X123710886Y-114677866D01*
X123710886Y-114677866D02*
X123710886Y-114439771D01*
X123710886Y-114439771D02*
X123663267Y-114249295D01*
X123663267Y-114249295D02*
X123615648Y-114154057D01*
X123615648Y-114154057D02*
X123568029Y-114106438D01*
X123568029Y-114106438D02*
X123472791Y-114058819D01*
M02*
