M48
; DRILL file {KiCad 9.0.2} date 2026-04-01T13:00:15-0400
; FORMAT={-:-/ absolute / metric / decimal}
; #@! TF.CreationDate,2026-04-01T13:00:15-04:00
; #@! TF.GenerationSoftware,Kicad,Pcbnew,9.0.2
; #@! TF.FileFunction,Plated,1,2,PTH
FMAT,2
METRIC
; #@! TA.AperFunction,Plated,PTH,ViaDrill
T1C0.300
; #@! TA.AperFunction,Plated,PTH,ComponentDrill
T2C0.400
; #@! TA.AperFunction,Plated,PTH,ComponentDrill
T3C0.800
; #@! TA.AperFunction,Plated,PTH,ComponentDrill
T4C1.000
; #@! TA.AperFunction,Plated,PTH,ComponentDrill
T5C1.100
; #@! TA.AperFunction,Plated,PTH,ComponentDrill
T6C1.300
%
G90
G05
T1
X118.11Y-82.55
X119.38Y-85.09
X119.38Y-86.36
X119.38Y-87.63
X119.38Y-88.9
X123.19Y-85.09
X123.19Y-86.36
X123.19Y-87.63
X123.19Y-88.9
X123.19Y-91.44
X129.54Y-80.01
X129.54Y-83.82
X130.81Y-80.01
X130.81Y-83.82
X132.08Y-80.01
X132.08Y-83.82
X133.35Y-80.01
X133.35Y-83.82
X137.16Y-83.82
X137.922Y-118.11
X142.24Y-124.46
X142.3Y-75.4
X147.9Y-121.412
X151.13Y-120.65
T4
X42.23Y-81.16
X44.73Y-81.16
X47.23Y-81.16
X62.55Y-81.16
X65.05Y-81.16
X67.55Y-81.16
X82.87Y-81.16
X85.37Y-81.16
X87.87Y-81.16
X103.19Y-81.16
X105.69Y-81.16
X108.19Y-81.16
X119.38Y-50.8
X119.38Y-53.34
X119.38Y-55.88
X119.38Y-58.42
X119.38Y-60.96
X119.38Y-63.5
X119.38Y-66.04
X130.683Y-92.837
X130.683Y-95.377
X144.78Y-30.48
X144.78Y-33.02
X144.78Y-35.56
X144.78Y-38.1
X144.78Y-40.64
X144.78Y-43.18
X144.78Y-45.72
X144.78Y-48.26
X144.78Y-50.8
X144.78Y-53.34
X144.78Y-55.88
X144.78Y-58.42
X144.78Y-60.96
X144.78Y-63.5
X144.78Y-66.04
X144.78Y-68.58
T5
X124.26Y-30.48
X124.26Y-33.02
X124.26Y-35.56
X124.26Y-38.1
X124.26Y-40.64
X124.26Y-43.18
X124.26Y-45.72
X124.26Y-48.26
X124.26Y-50.8
X124.26Y-53.34
X124.26Y-55.88
X124.26Y-58.42
X124.26Y-60.96
X124.26Y-63.5
X124.26Y-66.04
X124.26Y-68.58
X124.26Y-71.12
X124.26Y-73.66
X124.26Y-76.2
X124.26Y-78.74
X139.5Y-30.48
X139.5Y-33.02
X139.5Y-35.56
X139.5Y-38.1
X139.5Y-40.64
X139.5Y-43.18
X139.5Y-45.72
X139.5Y-48.26
X139.5Y-50.8
X139.5Y-53.34
X139.5Y-55.88
X139.5Y-58.42
X139.5Y-60.96
X139.5Y-63.5
X139.5Y-66.04
X139.5Y-68.58
X139.5Y-71.12
X139.5Y-73.66
X139.5Y-76.2
X139.5Y-78.74
T6
X38.3Y-34.29
X38.3Y-39.29
X38.3Y-53.34
X38.3Y-58.34
X50.8Y-34.29
X50.8Y-39.29
X50.8Y-53.34
X50.8Y-58.34
X58.62Y-34.29
X58.62Y-39.29
X58.62Y-53.34
X58.62Y-58.34
X71.12Y-34.29
X71.12Y-39.29
X71.12Y-53.34
X71.12Y-58.34
X78.94Y-34.29
X78.94Y-39.29
X78.94Y-53.34
X78.94Y-58.34
X91.44Y-34.29
X91.44Y-39.29
X91.44Y-53.34
X91.44Y-58.34
X99.26Y-34.29
X99.26Y-39.29
X99.26Y-53.34
X99.26Y-58.34
X111.76Y-34.29
X111.76Y-39.29
X111.76Y-53.34
X111.76Y-58.34
X123.19Y-121.666
X123.19Y-126.746
T2
G00X140.2Y-86.0
M15
G01X139.2Y-86.0
M16
G05
G00X139.2Y-96.0
M15
G01X140.2Y-96.0
M16
G05
G00X140.2Y-101.6
M15
G01X139.2Y-101.6
M16
G05
G00X139.2Y-111.6
M15
G01X140.2Y-111.6
M16
G05
G00X144.7Y-91.5
M15
G01X144.7Y-90.5
M16
G05
G00X144.7Y-107.1
M15
G01X144.7Y-106.1
M16
G05
T3
G00X140.05Y-88.5
M15
G01X139.35Y-88.5
M16
G05
G00X139.35Y-93.5
M15
G01X140.05Y-93.5
M16
G05
G00X140.05Y-104.1
M15
G01X139.35Y-104.1
M16
G05
G00X139.35Y-109.1
M15
G01X140.05Y-109.1
M16
G05
T5
G00X39.93Y-74.01
M15
G01X39.93Y-73.31
M16
G05
G00X49.53Y-74.01
M15
G01X49.53Y-73.31
M16
G05
G00X60.25Y-74.01
M15
G01X60.25Y-73.31
M16
G05
G00X69.85Y-74.01
M15
G01X69.85Y-73.31
M16
G05
G00X80.57Y-74.01
M15
G01X80.57Y-73.31
M16
G05
G00X90.17Y-74.01
M15
G01X90.17Y-73.31
M16
G05
G00X100.89Y-74.01
M15
G01X100.89Y-73.31
M16
G05
G00X110.49Y-74.01
M15
G01X110.49Y-73.31
M16
G05
M30
