%TF.GenerationSoftware,KiCad,Pcbnew,9.0.2*%
%TF.CreationDate,2026-04-01T12:59:57-04:00*%
%TF.ProjectId,FlowerBed,466c6f77-6572-4426-9564-2e6b69636164,rev?*%
%TF.SameCoordinates,Original*%
%TF.FileFunction,Profile,NP*%
%FSLAX46Y46*%
G04 Gerber Fmt 4.6, Leading zero omitted, Abs format (unit mm)*
G04 Created by KiCad (PCBNEW 9.0.2) date 2026-04-01 12:59:57*
%MOMM*%
%LPD*%
G01*
G04 APERTURE LIST*
%TA.AperFunction,Profile*%
%ADD10C,0.050000*%
%TD*%
%TA.AperFunction,Profile*%
%ADD11C,0.200000*%
%TD*%
G04 APERTURE END LIST*
D10*
X153314000Y-128651000D02*
G75*
G02*
X150114000Y-128651000I-1600000J0D01*
G01*
X150114000Y-128651000D02*
G75*
G02*
X153314000Y-128651000I1600000J0D01*
G01*
D11*
X95126000Y-111810000D02*
G75*
G02*
X86126000Y-120810000I-9000000J0D01*
G01*
D10*
X41801000Y-127300000D02*
G75*
G02*
X37951000Y-127300000I-1925000J0D01*
G01*
X37951000Y-127300000D02*
G75*
G02*
X41801000Y-127300000I1925000J0D01*
G01*
D11*
X47876000Y-109330000D02*
G75*
G02*
X56876000Y-100330000I9000000J0D01*
G01*
X56876000Y-100330000D02*
X86126000Y-100330000D01*
D10*
X104901000Y-94000000D02*
G75*
G02*
X101051000Y-94000000I-1925000J0D01*
G01*
X101051000Y-94000000D02*
G75*
G02*
X104901000Y-94000000I1925000J0D01*
G01*
D11*
X86126000Y-120810000D02*
X56876000Y-120810000D01*
D10*
X41801000Y-94000000D02*
G75*
G02*
X37951000Y-94000000I-1925000J0D01*
G01*
X37951000Y-94000000D02*
G75*
G02*
X41801000Y-94000000I1925000J0D01*
G01*
D11*
X86126000Y-100330000D02*
G75*
G02*
X95126000Y-109330000I0J-9000000D01*
G01*
X56876000Y-120810000D02*
G75*
G02*
X47876000Y-111810000I0J9000000D01*
G01*
X95126000Y-109330000D02*
X95126000Y-111810000D01*
X47876000Y-111810000D02*
X47876000Y-109330000D01*
D10*
X104901000Y-127300000D02*
G75*
G02*
X101051000Y-127300000I-1925000J0D01*
G01*
X101051000Y-127300000D02*
G75*
G02*
X104901000Y-127300000I1925000J0D01*
G01*
X36610000Y-132515000D02*
G75*
G02*
X34610000Y-130515000I0J2000000D01*
G01*
X34610000Y-24510000D02*
G75*
G02*
X36610000Y-22510000I2000000J0D01*
G01*
X153930000Y-22510000D02*
G75*
G02*
X155930000Y-24510000I0J-2000000D01*
G01*
X155930000Y-130515000D02*
G75*
G02*
X153930000Y-132515000I-2000000J0D01*
G01*
X34610000Y-130515000D02*
X34610000Y-24510000D01*
X36610000Y-22510000D02*
X153930000Y-22510000D01*
X155930000Y-24510000D02*
X155930000Y-130515000D01*
X153930000Y-132515000D02*
X36610000Y-132515000D01*
X153600000Y-26000000D02*
G75*
G02*
X150400000Y-26000000I-1600000J0D01*
G01*
X150400000Y-26000000D02*
G75*
G02*
X153600000Y-26000000I1600000J0D01*
G01*
X40355000Y-26000000D02*
G75*
G02*
X37155000Y-26000000I-1600000J0D01*
G01*
X37155000Y-26000000D02*
G75*
G02*
X40355000Y-26000000I1600000J0D01*
G01*
M02*
